<svg viewBox="0 0 1200 280" xmlns="http://www.w3.org/2000/svg">
  <defs>
    <linearGradient id="bgGrad" x1="0%" y1="0%" x2="100%" y2="100%">
      <stop offset="0%" stop-color="#120f1e"/>
      <stop offset="38%" stop-color="#2b2050"/>
      <stop offset="68%" stop-color="#4c3e93"/>
      <stop offset="100%" stop-color="#7a6ff0"/>
    </linearGradient>

    <radialGradient id="glow" cx="82%" cy="18%" r="55%">
      <stop offset="0%" stop-color="#c7c1ff" stop-opacity="0.38"/>
      <stop offset="100%" stop-color="#c7c1ff" stop-opacity="0"/>
    </radialGradient>

    <radialGradient id="glow2" cx="8%" cy="90%" r="45%">
      <stop offset="0%" stop-color="#6c5ce7" stop-opacity="0.35"/>
      <stop offset="100%" stop-color="#6c5ce7" stop-opacity="0"/>
    </radialGradient>

    <linearGradient id="wave1" x1="0%" y1="0%" x2="0%" y2="100%">
      <stop offset="0%" stop-color="#a89dff" stop-opacity="0.22"/>
      <stop offset="100%" stop-color="#a89dff" stop-opacity="0"/>
    </linearGradient>
    <linearGradient id="wave2" x1="0%" y1="0%" x2="0%" y2="100%">
      <stop offset="0%" stop-color="#4c3e93" stop-opacity="0.55"/>
      <stop offset="100%" stop-color="#0f0c1a" stop-opacity="0.85"/>
    </linearGradient>

    <filter id="grain">
      <feTurbulence type="fractalNoise" baseFrequency="0.85" numOctaves="2" stitchTiles="stitch" result="noise"/>
      <feColorMatrix in="noise" type="matrix"
        values="0 0 0 0 1
                0 0 0 0 1
                0 0 0 0 1
                0 0 0 0.035 0"/>
    </filter>

    <filter id="softShadow" x="-20%" y="-20%" width="140%" height="140%">
      <feDropShadow dx="0" dy="2" stdDeviation="6" flood-color="#0a0714" flood-opacity="0.55"/>
    </filter>
  </defs>

  <rect width="1200" height="280" fill="url(#bgGrad)"/>
  <rect width="1200" height="280" fill="url(#glow)"/>
  <rect width="1200" height="280" fill="url(#glow2)"/>
  <rect width="1200" height="280" filter="url(#grain)"/>

  <!-- soft scattered dot texture -->
  <g fill="#ffffff" opacity="0.06">
    <circle cx="120" cy="60" r="1.6"/>
    <circle cx="260" cy="34" r="1.2"/>
    <circle cx="980" cy="70" r="1.6"/>
    <circle cx="1080" cy="130" r="1.2"/>
    <circle cx="60" cy="180" r="1.4"/>
    <circle cx="1140" cy="40" r="1.4"/>
    <circle cx="820" cy="30" r="1.2"/>
    <circle cx="420" cy="24" r="1.2"/>
  </g>

  <!-- layered waves -->
  <path d="M0,190 C220,240 380,150 620,190 C860,230 1000,160 1200,200 L1200,280 L0,280 Z" fill="url(#wave1)"/>
  <path d="M0,215 C240,170 460,255 700,215 C900,182 1040,235 1200,210 L1200,280 L0,280 Z" fill="url(#wave2)"/>

  <!-- text -->
  <g filter="url(#softShadow)">
    <text x="600" y="128" text-anchor="middle" font-family="Georgia, 'Times New Roman', serif" font-size="52" fill="#ffffff" letter-spacing="1">Ujjwal Verma</text>
    <text x="600" y="168" text-anchor="middle" font-family="Helvetica, Arial, sans-serif" font-size="17" fill="#d9d4ff" letter-spacing="3">PRODUCT BUILDER &#183; SOFTWARE DEVELOPER &#183; PROMPT ENGINEER</text>
  </g>

  <line x1="500" y1="145" x2="700" y2="145" stroke="#a29bfe" stroke-width="1" opacity="0.5"/>
</svg>
